<svg data-logo="logo" xmlns="http://www.w3.org/2000/svg" viewBox="0 0 204.61000061035156 42">
        <g style="opacity: 1;" id="logogram" transform="translate(0, 0.5)
    rotate(0 20.5 20.5)"><path fill-rule="evenodd" clip-rule="evenodd" d="M20.9053 40.0799C31.951 40.0799 40.9053 31.1256 40.9053 20.0799C40.9053 9.03427 31.951 0.0799561 20.9053 0.0799561C9.85956 0.0799561 0.905273 9.03427 0.905273 20.0799C0.905273 31.1256 9.85956 40.0799 20.9053 40.0799ZM27.1446 9.3968C27.4483 8.31801 26.4014 7.68008 25.4453 8.36125L12.0984 17.8695C11.0615 18.6082 11.2246 20.0799 12.3434 20.0799H15.858V20.0527H22.7078L17.1265 22.022L14.666 30.7631C14.3623 31.8419 15.4091 32.4798 16.3653 31.7986L29.7122 22.2904C30.7491 21.5517 30.5859 20.0799 29.4672 20.0799H24.1374L27.1446 9.3968Z" fill="#0094FF"></path></g>
        <g style="opacity: 1;" id="logotype" transform="translate(47, 7.31201171875)"><path fill="#111111" d="M19.64 27L13.67 27L6.84 1.54L12.53 1.54L15.48 14.06Q15.84 15.64 16.14 17.42Q16.44 19.21 16.73 21.01Q17.02 22.81 17.30 24.47L17.30 24.47L16.37 24.47Q16.68 22.81 16.99 21.01Q17.30 19.21 17.62 17.42Q17.95 15.64 18.34 14.06L18.34 14.06L21.45 1.54L26.87 1.54L29.96 14.06Q30.35 15.64 30.68 17.42Q31.00 19.21 31.32 21.01Q31.63 22.81 31.94 24.47L31.94 24.47L30.99 24.47Q31.28 22.81 31.56 21.01Q31.84 19.21 32.16 17.42Q32.47 15.64 32.81 14.06L32.81 14.06L35.77 1.54L41.48 1.54L34.63 27L28.68 27L25.29 13.98Q24.75 11.81 24.36 9.27Q23.98 6.73 23.50 4.07L23.50 4.07L24.80 4.07Q24.27 6.68 23.94 9.18Q23.60 11.67 23.00 13.98L23.00 13.98L19.64 27ZM50.77 27.38L50.77 27.38Q47.90 27.38 45.80 26.14Q43.70 24.90 42.56 22.68Q41.43 20.47 41.43 17.53L41.43 17.53Q41.43 14.56 42.56 12.35Q43.70 10.13 45.80 8.89Q47.90 7.65 50.77 7.65L50.77 7.65Q53.66 7.65 55.76 8.89Q57.85 10.13 58.99 12.35Q60.12 14.56 60.12 17.53L60.12 17.53Q60.12 20.47 58.99 22.68Q57.85 24.90 55.76 26.14Q53.66 27.38 50.77 27.38ZM50.77 23.34L50.77 23.34Q52.14 23.34 53.06 22.58Q53.99 21.82 54.45 20.50Q54.91 19.17 54.91 17.52L54.91 17.52Q54.91 15.82 54.45 14.51Q53.99 13.19 53.06 12.44Q52.14 11.69 50.77 11.69L50.77 11.69Q49.41 11.69 48.49 12.44Q47.58 13.19 47.12 14.51Q46.65 15.82 46.65 17.52L46.65 17.52Q46.65 19.17 47.12 20.50Q47.58 21.82 48.49 22.58Q49.41 23.34 50.77 23.34ZM66.55 27L61.42 27L61.42 7.89L66.37 7.89L66.37 11.23L66.58 11.23Q67.11 9.45 68.35 8.54Q69.59 7.64 71.19 7.64L71.19 7.64Q71.59 7.64 72.04 7.68Q72.49 7.72 72.85 7.81L72.85 7.81L72.85 12.39Q72.51 12.27 71.86 12.20Q71.21 12.13 70.63 12.13L70.63 12.13Q69.47 12.13 68.53 12.64Q67.59 13.14 67.07 14.04Q66.55 14.93 66.55 16.13L66.55 16.13L66.55 27ZM81.53 17.48L78.04 21.41L78.04 15.24L78.81 15.24L85.07 7.89L91.00 7.89L82.74 17.48L81.53 17.48ZM78.52 27L73.40 27L73.40 1.54L78.52 1.54L78.52 27ZM91.36 27L85.32 27L79.58 18.63L83.02 14.99L91.36 27ZM96.76 27L91.54 27L91.54 1.54L101.47 1.54Q104.38 1.54 106.41 2.64Q108.45 3.74 109.51 5.68Q110.58 7.62 110.58 10.13L110.58 10.13Q110.58 12.66 109.50 14.58Q108.41 16.51 106.35 17.59Q104.29 18.68 101.35 18.68L101.35 18.68L94.96 18.68L94.96 14.47L100.52 14.47Q102.12 14.47 103.16 13.92Q104.19 13.36 104.69 12.39Q105.20 11.41 105.20 10.13L105.20 10.13Q105.20 8.85 104.69 7.88Q104.19 6.90 103.15 6.37Q102.11 5.84 100.50 5.84L100.50 5.84L96.76 5.84L96.76 27ZM116.95 27L111.83 27L111.83 7.89L116.95 7.89L116.95 27ZM114.39 5.40L114.39 5.40Q113.23 5.40 112.41 4.63Q111.59 3.86 111.59 2.77L111.59 2.77Q111.59 1.67 112.41 0.90Q113.23 0.13 114.39 0.13L114.39 0.13Q115.55 0.13 116.38 0.90Q117.21 1.66 117.21 2.77L117.21 2.77Q117.21 3.86 116.38 4.63Q115.55 5.40 114.39 5.40ZM119.04 1.54L124.16 1.54L124.16 27L119.04 27L119.04 1.54ZM134.79 27.38L134.79 27.38Q131.92 27.38 129.82 26.14Q127.72 24.90 126.58 22.68Q125.44 20.47 125.44 17.53L125.44 17.53Q125.44 14.56 126.58 12.35Q127.72 10.13 129.82 8.89Q131.92 7.65 134.79 7.65L134.79 7.65Q137.68 7.65 139.77 8.89Q141.87 10.13 143.00 12.35Q144.14 14.56 144.14 17.53L144.14 17.53Q144.14 20.47 143.00 22.68Q141.87 24.90 139.77 26.14Q137.68 27.38 134.79 27.38ZM134.79 23.34L134.79 23.34Q136.16 23.34 137.08 22.58Q138.00 21.82 138.47 20.50Q138.93 19.17 138.93 17.52L138.93 17.52Q138.93 15.82 138.47 14.51Q138.00 13.19 137.08 12.44Q136.16 11.69 134.79 11.69L134.79 11.69Q133.42 11.69 132.51 12.44Q131.60 13.19 131.13 14.51Q130.67 15.82 130.67 17.52L130.67 17.52Q130.67 19.17 131.13 20.50Q131.60 21.82 132.51 22.58Q133.42 23.34 134.79 23.34ZM143.59 7.89L154.92 7.89L154.92 11.81L143.59 11.81L143.59 7.89ZM146.22 21.86L146.22 3.35L151.35 3.35L151.35 21.41Q151.35 22.32 151.75 22.75Q152.15 23.19 153.09 23.19L153.09 23.19Q153.38 23.19 153.91 23.11Q154.44 23.04 154.72 22.97L154.72 22.97L155.45 26.81Q154.60 27.07 153.75 27.17Q152.90 27.27 152.14 27.27L152.14 27.27Q149.26 27.27 147.74 25.87Q146.22 24.47 146.22 21.86L146.22 21.86Z"></path></g>
        
      </svg>